<svg width="24" height="24" viewBox="0 0 24 24" fill="none" xmlns="http://www.w3.org/2000/svg">
<rect width="24" height="24" fill="#E5E5E5"/>
<g id="UIKit / Header, footer">
<rect id="Rectangle 16" x="-386" y="-354.344" width="3636" height="2278" fill="#EDEDF7"/>
<g id="Assets / Facebook-Header" clip-path="url(#clip0_0_1)">
<path id="Vector" d="M23.9998 12.0728C23.9998 5.40492 18.6272 -0.000488281 11.9998 -0.000488281C5.37233 -0.000488281 -0.000244141 5.40492 -0.000244141 12.0728C-0.000244141 18.099 4.38798 23.0938 10.1248 23.9995V15.5628H7.07788V12.0728H10.1248V9.41294C10.1248 6.38706 11.9163 4.71566 14.6573 4.71566C15.9702 4.71566 17.3435 4.95147 17.3435 4.95147V7.92264H15.8303C14.3396 7.92264 13.8748 8.8533 13.8748 9.80808V12.0728H17.2029L16.6708 15.5628H13.8748V23.9995C19.6115 23.0938 23.9998 18.099 23.9998 12.0728Z" fill="#B3B3BA"/>
</g>
</g>
<defs>
<clipPath id="clip0_0_1">
<rect width="24" height="24" fill="white" transform="translate(-0.000244141 -0.000488281)"/>
</clipPath>
</defs>
</svg>
